# xmcd
#
# Track frame offsets:
# 150
# 20580
# 37040
# 52110
#
# Disc length: 888 seconds
#
#
# Revision: 3
# Processed by: cddbd v1.5.2PL0 Copyright (c) Steve Scherf et al.
# Submitted via: FreeRIP 2.945 
#
DISCID=32037604
DTITLE=Shania Twain - I'm Gonna Getcha Good! [CD Single)
DYEAR=2002
DGENRE=Pop
TTITLE0=I'm Gonna Getcha Good! (Red)
TTITLE1=C'est La Vie (Blue)
TTITLE2=In My Car (Red)
TTITLE3=In My Car (Blue)
EXTD=Jahr: 2002
EXTT0=
EXTT1=
EXTT2=
EXTT3=
PLAYORDER=
